<svg width="993" height="141" viewBox="0 0 993 141" fill="none" xmlns="http://www.w3.org/2000/svg">
<path d="M0 139V0H63.8C77.8 0 89.2 3.4 98 10.2C106.933 16.8667 111.4 26.8 111.4 40C111.4 49.8667 108.2 58.0667 101.8 64.6C95.4 71 86.5333 74.8667 75.2 76.2C83.4667 77.4 90 80.2667 94.8 84.8C99.6 89.3333 103.333 95.8 106 104.2L117.2 139H91.2L81.4 107.8C76.8667 92.6 67.2667 85 52.6 85H25.8V139H0ZM25.8 63.2H59.4C77.5333 63.2 86.6 56.3333 86.6 42.6C86.6 28.8667 77.5333 22 59.4 22H25.8V63.2Z" fill="white"/>
<path d="M155.789 139V0H262.189V22.8H181.989V56H251.589V78.6H181.589V116H262.189V139H155.789Z" fill="white"/>
<path d="M301.031 139V0H363.831C396.231 0 412.431 12.2667 412.431 36.8C412.431 44.5333 410.298 51 406.031 56.2C401.765 61.2667 395.898 64.8 388.431 66.8C397.098 68.8 403.631 72.6667 408.031 78.4C412.565 84.1333 414.831 91.2667 414.831 99.8C414.831 112.6 410.431 122.333 401.631 129C392.965 135.667 380.498 139 364.231 139H301.031ZM327.031 56.6H364.831C380.031 56.6 387.631 50.8 387.631 39.2C387.631 27.2 380.031 21.2 364.831 21.2H327.031V56.6ZM327.031 117.8H364.231C380.765 117.8 389.031 111.133 389.031 97.8C389.031 84.8667 380.765 78.4 364.231 78.4H327.031V117.8Z" fill="white"/>
<path d="M452.914 139V0H479.114V116H553.314V139H452.914Z" fill="white"/>
<path d="M580.562 139L610.162 0H630.162L600.562 139H580.562Z" fill="white"/>
<path d="M705.498 141C688.565 141 675.432 135.933 666.098 125.8C656.898 115.533 654.165 101.533 657.898 83.8L675.698 0H695.898L678.098 83.4C675.298 96.2 676.565 106.067 681.898 113C687.365 119.933 696.432 123.4 709.098 123.4C720.698 123.4 730.765 119.867 739.298 112.8C747.832 105.733 753.432 96 756.098 83.6L773.698 0H793.698L775.898 83.8C771.898 102.6 763.832 116.867 751.698 126.6C739.698 136.2 724.298 141 705.498 141Z" fill="white"/>
<path d="M811.086 139L840.686 0H862.686L890.686 122.4L965.886 0H992.286L962.686 139H942.686L964.886 35L898.886 139H877.286L852.886 36.4L830.886 139H811.086Z" fill="white"/>
</svg>
